PathFileType	4	(X/Y/Z)	C:\Users\°ÂÌØÂü\Desktop\20210112\bx_y_0_502-Unnamed.trc
DataRate	CameraRate	NumFrames	NumMarkers	Units	OrigDataRate	OrigDataStartFrame	OrigNumFrames
50.00	50.00	       6	0	mm	50.00	211	       560
Frame#	Time	
		

211	4.200	-130.93541	94.88985	1339.07605	-385.65506	272.45267	1194.89075	-811.22491	283.60446	865.93884	-744.29340	-10.30071	799.80084	-757.69330	-9.45164	997.98651	-838.13489	255.17392	623.13287				-761.53461	211.12106	534.35980	-847.07434	262.11258	484.95618	-664.06006	-69.33218	160.29893	-518.18951	-73.09096	143.33792	-728.24109	71.42586	220.91167	-605.75525	20.25884	167.56927	-678.03088	52.77927	162.53421	-720.81085	157.90869	220.94646	-799.84381	176.07797	181.72221	-776.91272	227.12608	200.84563	-597.07117	223.10498	174.08295	-882.86200	295.93799	144.53130	-562.09454	257.94345	165.82458	-667.30328	300.32019	158.50838	-629.53192	307.11737	161.52202	-528.06702	304.16290	146.47841	-388.22110	-82.72364	1173.09619	-743.74561	217.88921	802.45746	-773.41571	-10.70514	202.21825	-798.47437	49.75302	173.14545	-838.17194	-42.92547	473.43210	-560.41785	-34.63155	163.16751	-876.02838	-78.54763	141.55200	-922.29657	95.06277	1100.08923	-817.05914	-33.85555	605.91443	-813.23358	-31.10559	559.90967	-677.63184	176.53221	162.24702	-621.96759	-79.40189	157.29449	-832.55115	-64.11984	723.14252				-828.92432	-73.68932	856.50806				-753.60339	14.76596	525.08020				-785.61615	148.73517	565.77661	-825.41083	251.22099	564.80597				-788.83771	74.37777	566.59351	
212	4.220	-131.41753	94.50355	1339.74841	-386.05902	272.35522	1195.71387	-811.28210	284.26596	866.29553	-744.34802	-10.41917	799.95905	-758.08185	-9.33984	997.97327	-838.32397	255.16354	623.05237				-760.90350	211.22733	534.79865	-847.21869	262.26825	484.98499	-664.12311	-69.61874	160.27945	-518.14209	-73.08868	143.33670	-728.11932	71.24844	220.91635	-605.56305	20.44451	167.54141	-678.16278	52.76144	162.60429	-720.77698	157.64807	220.96565	-799.86957	176.00705	181.56795	-776.91272	227.12608	200.84563	-596.93109	222.99304	173.92918	-882.82623	295.97595	144.64656	-562.09454	257.94345	165.82458	-667.38599	300.20590	158.71336	-629.65399	306.99115	161.44785	-528.03668	304.09201	146.44798	-388.87622	-82.96889	1173.30786	-743.82721	218.02475	802.54291	-773.37506	-10.69922	202.30701	-798.39697	49.79051	173.24983	-838.17389	-42.91285	473.27109	-560.69220	-34.68358	163.18056	-876.02838	-78.54763	141.55200	-922.48413	95.04597	1099.99585	-817.06049	-33.89378	606.00818	-813.60992	-30.89221	559.71466	-677.74377	176.41766	162.32933	-621.91034	-79.39716	157.47946	-832.56226	-64.03781	723.12634				-829.33124	-73.69286	856.57141				-753.73676	14.65877	524.95844				-785.86359	148.91992	565.63794	-825.45807	251.12541	564.77924				-788.87579	74.21515	566.57550	
213	4.240	-132.17009	94.17053	1340.41907	-386.32980	271.96802	1195.87280	-811.25354	283.93509	866.11713	-744.61249	-10.43309	800.00903	-758.37445	-9.85276	998.18604	-838.40240	255.10283	622.91235				-761.63159	211.02396	534.26703	-847.13635	262.03973	484.89502	-664.08173	-69.46326	160.13728	-518.29669	-72.90465	143.27316	-728.39862	71.44239	220.94160	-605.70831	20.39803	167.67831	-678.16278	52.76144	162.60429	-720.91333	157.80275	221.01555	-799.90594	176.09814	181.60335	-776.91272	227.12608	200.84563	-597.30402	222.81686	173.79039	-882.78827	295.95642	144.63397	-562.11511	258.01505	165.88927	-667.45764	300.44586	158.52333	-629.52301	307.05951	161.55922	-527.99127	304.15427	146.42061	-389.68741	-83.12590	1173.93262	-743.50928	218.43921	802.74207	-773.31702	-10.74805	202.21227	-798.49017	49.86261	173.21747	-838.34039	-42.90501	473.29700	-560.48553	-34.62123	163.11429	-876.03320	-78.59757	141.50241	-922.72705	95.12429	1099.88013	-817.05304	-33.93174	606.06274	-813.71222	-30.89941	559.83630	-677.63184	176.53221	162.24702	-621.95837	-79.56640	157.18289	-833.32483	-65.00048	723.55432				-829.61365	-74.07464	856.97211				-753.83069	14.56275	524.98535				-786.06555	148.57951	565.94946	-825.46820	251.18686	564.69604				-788.76733	74.36007	566.46045	
214	4.260	-132.85118	93.94424	1341.09888	-386.48486	271.90656	1196.29199	-811.29156	283.98712	866.35797	-744.60254	-10.57296	800.08197	-758.79327	-9.65843	997.95526	-838.42920	255.12167	622.94501				-761.72394	211.05386	534.28485	-847.13000	262.06992	484.88055	-664.08173	-69.46326	160.13728	-518.20551	-72.92622	143.34137	-728.23969	71.37840	220.75899	-605.57434	20.46180	167.63812	-678.16278	52.76144	162.60429	-720.81970	157.62956	221.04076	-800.12708	176.22255	181.79033	-777.43878	226.85451	200.28613	-597.09332	222.87352	173.96016	-882.77228	295.96674	144.66328	-562.11511	258.01505	165.88927	-667.26117	300.39209	158.48987	-629.58118	306.81857	161.34262	-527.99561	303.95700	146.33847	-389.94537	-83.69268	1174.45886	-743.74866	218.38678	802.68286	-773.31873	-10.68742	202.38586	-798.46460	49.87428	173.28395	-838.18347	-42.70574	473.21701	-560.48315	-34.71630	163.01608	-876.03320	-78.59757	141.50241	-922.92487	95.11945	1099.52551	-817.09583	-33.87341	605.83875	-813.80603	-30.75937	560.04340	-677.63184	176.53221	162.24702	-622.02454	-79.25448	157.10614	-833.45795	-65.03380	723.71747				-829.73090	-74.14475	856.88483				-753.60339	14.76596	525.08020				-786.15631	148.77232	565.75842	-825.60931	251.06509	564.62219				-788.83771	74.37777	566.59351	
215	4.280	-133.54272	93.45144	1342.27979	-386.97623	271.62848	1197.05737	-811.40308	284.28113	866.62421	-744.73694	-10.41433	800.01465	-759.03894	-9.63193	997.86951	-838.42920	255.12167	622.94501				-761.83667	211.12057	534.26227	-847.12189	262.19550	485.05457	-664.14728	-69.67067	160.21667	-518.17462	-73.09765	142.98582	-728.24109	71.42586	220.91167	-605.76349	20.32103	167.59766	-678.03088	52.77927	162.53421	-720.98364	157.80980	221.18208	-800.06140	176.23244	181.53870	-776.99982	227.13458	200.73863	-597.07678	222.94711	173.91943	-882.66895	295.87372	144.49438	-562.11511	258.01505	165.88927	-667.38043	300.32306	158.54596	-629.57324	307.16959	161.51030	-528.03668	304.09201	146.44798	-390.14270	-83.89494	1174.74622	-743.85547	218.09654	802.48914	-773.37506	-10.69922	202.30701	-798.25287	49.80513	172.87505	-838.29291	-42.52875	473.15646	-560.68219	-34.78660	163.30112	-876.02838	-78.54763	141.55200	-923.41064	95.31239	1099.54199	-817.05304	-33.93174	606.06274	-813.82983	-30.72520	559.81915	-677.60675	176.60516	162.32176	-621.97211	-79.45107	157.29974	-833.70721	-64.60281	723.17560				-829.94873	-74.05327	856.86829				-753.60339	14.76596	525.08020				-786.13586	148.84894	566.12732	-825.63464	251.08406	564.55414				-788.80847	74.44613	566.58972	
216	4.300	-134.19414	93.21294	1343.32715	-387.33569	271.63031	1197.89746	-811.40308	284.28113	866.62421	-744.80444	-10.50007	800.31152	-759.11328	-9.60924	997.74780	-838.50769	255.06096	622.80499				-761.73706	211.03706	534.34637	-847.14667	262.18140	485.01434	-664.18512	-69.54350	160.10774	-518.23547	-72.81422	143.09286	-728.24109	71.42586	220.91167	-605.67908	20.39020	167.69403	-678.03088	52.77927	162.53421	-720.95056	157.83206	221.19514	-800.10968	176.11407	181.56564	-776.91272	227.12608	200.84563	-597.15253	222.86504	173.95187	-882.85785	295.98120	144.65349	-562.09454	257.94345	165.82458	-667.38049	300.44296	158.48576	-629.52301	307.05951	161.55922	-528.00800	304.06058	146.46793	-390.83362	-84.30605	1175.85962	-743.99377	217.98981	802.72937	-773.37506	-10.69922	202.30701	-798.48694	50.01352	173.33693	-838.28937	-42.52604	473.04382	-560.48553	-34.62123	163.11429	-876.03320	-78.59757	141.50241	-923.56787	95.28578	1099.51550	-817.05304	-33.93174	606.06274	-813.70825	-30.72722	559.95154	-677.77112	176.62213	162.10719	-622.09900	-79.65759	157.24107	-833.78687	-64.58421	723.26154				-829.97858	-73.98589	856.71979				-753.51208	14.93021	525.21082				-786.13586	148.84894	566.12732	-825.63464	251.08406	564.55414				-788.80847	74.44613	566.58972	
